<?xml version="1.0" encoding="utf-8"?>
<!-- Generated by Mocodo 4.3.2 -->
<svg width="651" height="547" viewBox="0 0 651 547" xmlns="http://www.w3.org/2000/svg">
<rect x="0" y="0" width="651" height="547" fill="#f5f5f5" stroke="none" stroke-width="0"/>

<!-- Association POSSEDE9 -->
<g>
	<line x1="433" y1="160" x2="250" y2="51" stroke="#35978f" stroke-width="2"/>
	<line x1="67" y1="51" x2="250" y2="51" stroke="#35978f" stroke-width="2"/>
	<g>
		<path d="M273 26 a14 14 90 0 1 14 14 V51 h-74 V40 a14 14 90 0 1 14 -14" fill="#80cdc1" stroke="#80cdc1" stroke-width="0"/>
		<path d="M287 51 v11 a14 14 90 0 1 -14 14 H227 a14 14 90 0 1 -14 -14 V51 H74" fill="#c7eae5" stroke="#c7eae5" stroke-width="0"/>
		<rect x="213" y="26" width="74" height="50" fill="none" rx="14" stroke="#35978f" stroke-width="2"/>
		<line x1="213" y1="51" x2="287" y2="51" stroke="#35978f" stroke-width="1"/>
		<text x="221" y="43.75" fill="#000000" font-family="Verdana" font-size="12">POSSEDE</text>
	</g>
	<text x="367" y="149.16" fill="#8c510a" font-family="Verdana" font-size="12">0,N</text>
	<text x="130" y="68" fill="#8c510a" font-family="Verdana" font-size="12">1,1</text>
</g>

<!-- Association POSSEDE -->
<g>
	<line x1="433" y1="160" x2="433" y2="51" stroke="#35978f" stroke-width="2"/>
	<line x1="557" y1="51" x2="433" y2="51" stroke="#35978f" stroke-width="2"/>
	<g>
		<path d="M456 26 a14 14 90 0 1 14 14 V51 h-74 V40 a14 14 90 0 1 14 -14" fill="#80cdc1" stroke="#80cdc1" stroke-width="0"/>
		<path d="M470 51 v11 a14 14 90 0 1 -14 14 H410 a14 14 90 0 1 -14 -14 V51 H74" fill="#c7eae5" stroke="#c7eae5" stroke-width="0"/>
		<rect x="396" y="26" width="74" height="50" fill="none" rx="14" stroke="#35978f" stroke-width="2"/>
		<line x1="396" y1="51" x2="470" y2="51" stroke="#35978f" stroke-width="1"/>
		<text x="404" y="43.75" fill="#000000" font-family="Verdana" font-size="12">POSSEDE</text>
	</g>
	<text x="438" y="101" fill="#8c510a" font-family="Verdana" font-size="12">0,N</text>
	<text x="488" y="68" fill="#8c510a" font-family="Verdana" font-size="12">0,N</text>
</g>

<!-- Association APPARTIENT -->
<g>
	<line x1="433" y1="160" x2="250" y2="160" stroke="#35978f" stroke-width="2"/>
	<line x1="67" y1="160" x2="250" y2="160" stroke="#35978f" stroke-width="2"/>
	<g>
		<path d="M282 135 a14 14 90 0 1 14 14 V160 h-92 V149 a14 14 90 0 1 14 -14" fill="#80cdc1" stroke="#80cdc1" stroke-width="0"/>
		<path d="M296 160 v11 a14 14 90 0 1 -14 14 H218 a14 14 90 0 1 -14 -14 V160 H92" fill="#c7eae5" stroke="#c7eae5" stroke-width="0"/>
		<rect x="204" y="135" width="92" height="50" fill="none" rx="14" stroke="#35978f" stroke-width="2"/>
		<line x1="204" y1="160" x2="296" y2="160" stroke="#35978f" stroke-width="1"/>
		<text x="212" y="152.75" fill="#000000" font-family="Verdana" font-size="12">APPARTIENT</text>
	</g>
	<text x="367" y="177" fill="#8c510a" font-family="Verdana" font-size="12">0,N</text>
	<text x="121" y="177" fill="#8c510a" font-family="Verdana" font-size="12">1,1</text>
</g>

<!-- Association CREER -->
<g>
	<line x1="433" y1="160" x2="557" y2="160" stroke="#35978f" stroke-width="2"/>
	<line x1="557" y1="286" x2="557" y2="160" stroke="#35978f" stroke-width="2"/>
	<g>
		<path d="M571 135 a14 14 90 0 1 14 14 V160 h-56 V149 a14 14 90 0 1 14 -14" fill="#80cdc1" stroke="#80cdc1" stroke-width="0"/>
		<path d="M585 160 v11 a14 14 90 0 1 -14 14 H543 a14 14 90 0 1 -14 -14 V160 H56" fill="#c7eae5" stroke="#c7eae5" stroke-width="0"/>
		<rect x="529" y="135" width="56" height="50" fill="none" rx="14" stroke="#35978f" stroke-width="2"/>
		<line x1="529" y1="160" x2="585" y2="160" stroke="#35978f" stroke-width="1"/>
		<text x="537" y="152.75" fill="#000000" font-family="Verdana" font-size="12">CREER</text>
	</g>
	<text x="477" y="177" fill="#8c510a" font-family="Verdana" font-size="12">1,1</text>
	<text x="562" y="202" fill="#8c510a" font-family="Verdana" font-size="12">0,N</text>
</g>

<!-- Association POSSEDE2 -->
<g>
	<line x1="67" y1="160" x2="67" y2="286" stroke="#35978f" stroke-width="2"/>
	<line x1="67" y1="421" x2="67" y2="286" stroke="#35978f" stroke-width="2"/>
	<g>
		<path d="M90 261 a14 14 90 0 1 14 14 V286 h-74 V275 a14 14 90 0 1 14 -14" fill="#80cdc1" stroke="#80cdc1" stroke-width="0"/>
		<path d="M104 286 v11 a14 14 90 0 1 -14 14 H44 a14 14 90 0 1 -14 -14 V286 H74" fill="#c7eae5" stroke="#c7eae5" stroke-width="0"/>
		<rect x="30" y="261" width="74" height="50" fill="none" rx="14" stroke="#35978f" stroke-width="2"/>
		<line x1="30" y1="286" x2="104" y2="286" stroke="#35978f" stroke-width="1"/>
		<text x="38" y="278.75" fill="#000000" font-family="Verdana" font-size="12">POSSEDE</text>
	</g>
	<text x="72" y="219" fill="#8c510a" font-family="Verdana" font-size="12">0,N</text>
	<text x="72" y="371" fill="#8c510a" font-family="Verdana" font-size="12">1,1</text>
</g>

<!-- Association POSSEDE3 -->
<g>
	<line x1="433" y1="160" x2="250" y2="286" stroke="#35978f" stroke-width="2"/>
	<line x1="250" y1="421" x2="250" y2="286" stroke="#35978f" stroke-width="2"/>
	<g>
		<path d="M273 261 a14 14 90 0 1 14 14 V286 h-74 V275 a14 14 90 0 1 14 -14" fill="#80cdc1" stroke="#80cdc1" stroke-width="0"/>
		<path d="M287 286 v11 a14 14 90 0 1 -14 14 H227 a14 14 90 0 1 -14 -14 V286 H74" fill="#c7eae5" stroke="#c7eae5" stroke-width="0"/>
		<rect x="213" y="261" width="74" height="50" fill="none" rx="14" stroke="#35978f" stroke-width="2"/>
		<line x1="213" y1="286" x2="287" y2="286" stroke="#35978f" stroke-width="1"/>
		<text x="221" y="278.75" fill="#000000" font-family="Verdana" font-size="12">POSSEDE</text>
	</g>
	<text x="368" y="184.11" fill="#8c510a" font-family="Verdana" font-size="12">1,1</text>
	<text x="255" y="379" fill="#8c510a" font-family="Verdana" font-size="12">0,N</text>
</g>

<!-- Association POSSEDE5 -->
<g>
	<line x1="433" y1="160" x2="433" y2="286" stroke="#35978f" stroke-width="2"/>
	<line x1="433" y1="421" x2="433" y2="286" stroke="#35978f" stroke-width="2"/>
	<g>
		<path d="M456 261 a14 14 90 0 1 14 14 V286 h-74 V275 a14 14 90 0 1 14 -14" fill="#80cdc1" stroke="#80cdc1" stroke-width="0"/>
		<path d="M470 286 v11 a14 14 90 0 1 -14 14 H410 a14 14 90 0 1 -14 -14 V286 H74" fill="#c7eae5" stroke="#c7eae5" stroke-width="0"/>
		<rect x="396" y="261" width="74" height="50" fill="none" rx="14" stroke="#35978f" stroke-width="2"/>
		<line x1="396" y1="286" x2="470" y2="286" stroke="#35978f" stroke-width="1"/>
		<text x="404" y="278.75" fill="#000000" font-family="Verdana" font-size="12">POSSEDE</text>
	</g>
	<text x="438" y="228" fill="#8c510a" font-family="Verdana" font-size="12">0,N</text>
	<text x="438" y="379" fill="#8c510a" font-family="Verdana" font-size="12">1,1</text>
</g>

<!-- Association APPARTIENT2 -->
<g>
	<line x1="557" y1="286" x2="557" y2="421" stroke="#35978f" stroke-width="2"/>
	<line x1="433" y1="421" x2="557" y2="421" stroke="#35978f" stroke-width="2"/>
	<g>
		<path d="M589 396 a14 14 90 0 1 14 14 V421 h-92 V410 a14 14 90 0 1 14 -14" fill="#80cdc1" stroke="#80cdc1" stroke-width="0"/>
		<path d="M603 421 v11 a14 14 90 0 1 -14 14 H525 a14 14 90 0 1 -14 -14 V421 H92" fill="#c7eae5" stroke="#c7eae5" stroke-width="0"/>
		<rect x="511" y="396" width="92" height="50" fill="none" rx="14" stroke="#35978f" stroke-width="2"/>
		<line x1="511" y1="421" x2="603" y2="421" stroke="#35978f" stroke-width="1"/>
		<text x="519" y="413.75" fill="#000000" font-family="Verdana" font-size="12">APPARTIENT</text>
	</g>
	<text x="562" y="379" fill="#8c510a" font-family="Verdana" font-size="12">0,N</text>
	<text x="484" y="438" fill="#8c510a" font-family="Verdana" font-size="12">1,1</text>
</g>

<!-- Association POSSEDE8 -->
<g>
	<line x1="67" y1="421" x2="67" y2="513" stroke="#35978f" stroke-width="2"/>
	<line x1="250" y1="513" x2="67" y2="513" stroke="#35978f" stroke-width="2"/>
	<g>
		<path d="M90 488 a14 14 90 0 1 14 14 V513 h-74 V502 a14 14 90 0 1 14 -14" fill="#80cdc1" stroke="#80cdc1" stroke-width="0"/>
		<path d="M104 513 v11 a14 14 90 0 1 -14 14 H44 a14 14 90 0 1 -14 -14 V513 H74" fill="#c7eae5" stroke="#c7eae5" stroke-width="0"/>
		<rect x="30" y="488" width="74" height="50" fill="none" rx="14" stroke="#35978f" stroke-width="2"/>
		<line x1="30" y1="513" x2="104" y2="513" stroke="#35978f" stroke-width="1"/>
		<text x="38" y="505.75" fill="#000000" font-family="Verdana" font-size="12">POSSEDE</text>
	</g>
	<text x="72" y="480" fill="#8c510a" font-family="Verdana" font-size="12">0,N</text>
	<text x="110" y="530" fill="#8c510a" font-family="Verdana" font-size="12">1,1</text>
</g>

<!-- Association POSSEDE6 -->
<g>
	<line x1="433" y1="421" x2="433" y2="513" stroke="#35978f" stroke-width="2"/>
	<line x1="250" y1="513" x2="433" y2="513" stroke="#35978f" stroke-width="2"/>
	<g>
		<path d="M456 488 a14 14 90 0 1 14 14 V513 h-74 V502 a14 14 90 0 1 14 -14" fill="#80cdc1" stroke="#80cdc1" stroke-width="0"/>
		<path d="M470 513 v11 a14 14 90 0 1 -14 14 H410 a14 14 90 0 1 -14 -14 V513 H74" fill="#c7eae5" stroke="#c7eae5" stroke-width="0"/>
		<rect x="396" y="488" width="74" height="50" fill="none" rx="14" stroke="#35978f" stroke-width="2"/>
		<line x1="396" y1="513" x2="470" y2="513" stroke="#35978f" stroke-width="1"/>
		<text x="404" y="505.75" fill="#000000" font-family="Verdana" font-size="12">POSSEDE</text>
	</g>
	<text x="438" y="472" fill="#8c510a" font-family="Verdana" font-size="12">1,N</text>
	<text x="369" y="530" fill="#8c510a" font-family="Verdana" font-size="12">1,1</text>
</g>

<!-- Entity QUIZ_IMAGE -->
<g>
	<g>
		<rect x="9" y="9" width="116" height="25" fill="#dfc27d" stroke="none" stroke-width="0" opacity="1"/>
		<rect x="9" y="34" width="116" height="59" fill="#f6e8c3" stroke="none" stroke-width="0" opacity="1"/>
		<rect x="9" y="9" width="116" height="84" fill="none" stroke="#bf812d" stroke-width="2" opacity="1"/>
		<line x1="9" y1="34" x2="125" y2="34" stroke="#bf812d" stroke-width="1"/>
	</g>
	<text x="27" y="26.75" fill="#000000" font-family="Verdana" font-size="12">QUIZ_IMAGE</text>
	<text x="14" y="51.8" fill="#000000" font-family="Verdana" font-size="12">num_quiz_image</text>
	<line x1="14" y1="54" x2="119" y2="54" stroke="#000000" stroke-width="1"/>
	<text x="14" y="68.8" fill="#000000" font-family="Verdana" font-size="12">url</text>
	<text x="14" y="85.8" fill="#000000" font-family="Verdana" font-size="12">text_alt</text>
</g>

<!-- Entity THEME -->
<g>
	<g>
		<rect x="515" y="17" width="84" height="25" fill="#dfc27d" stroke="none" stroke-width="0" opacity="1"/>
		<rect x="515" y="42" width="84" height="43" fill="#f6e8c3" stroke="none" stroke-width="0" opacity="1"/>
		<rect x="515" y="17" width="84" height="68" fill="none" stroke="#bf812d" stroke-width="2" opacity="1"/>
		<line x1="515" y1="42" x2="599" y2="42" stroke="#bf812d" stroke-width="1"/>
	</g>
	<text x="536" y="34.75" fill="#000000" font-family="Verdana" font-size="12">THEME</text>
	<text x="520" y="59.8" fill="#000000" font-family="Verdana" font-size="12">num_theme</text>
	<line x1="520" y1="62" x2="594" y2="62" stroke="#000000" stroke-width="1"/>
	<text x="520" y="76.8" fill="#000000" font-family="Verdana" font-size="12">titre</text>
</g>

<!-- Entity QUESTION -->
<g>
	<g>
		<rect x="18" y="118" width="98" height="25" fill="#dfc27d" stroke="none" stroke-width="0" opacity="1"/>
		<rect x="18" y="143" width="98" height="59" fill="#f6e8c3" stroke="none" stroke-width="0" opacity="1"/>
		<rect x="18" y="118" width="98" height="84" fill="none" stroke="#bf812d" stroke-width="2" opacity="1"/>
		<line x1="18" y1="143" x2="116" y2="143" stroke="#bf812d" stroke-width="1"/>
	</g>
	<text x="34" y="135.75" fill="#000000" font-family="Verdana" font-size="12">QUESTION</text>
	<text x="23" y="160.8" fill="#000000" font-family="Verdana" font-size="12">num_question</text>
	<line x1="23" y1="163" x2="110" y2="163" stroke="#000000" stroke-width="1"/>
	<text x="23" y="177.8" fill="#000000" font-family="Verdana" font-size="12">description</text>
	<text x="23" y="194.8" fill="#000000" font-family="Verdana" font-size="12">est_multiple</text>
</g>

<!-- Entity QUIZ -->
<g>
	<g>
		<rect x="394" y="109" width="78" height="25" fill="#dfc27d" stroke="none" stroke-width="0" opacity="1"/>
		<rect x="394" y="134" width="78" height="77" fill="#f6e8c3" stroke="none" stroke-width="0" opacity="1"/>
		<rect x="394" y="109" width="78" height="102" fill="none" stroke="#bf812d" stroke-width="2" opacity="1"/>
		<line x1="394" y1="134" x2="472" y2="134" stroke="#bf812d" stroke-width="1"/>
	</g>
	<text x="417" y="126.75" fill="#000000" font-family="Verdana" font-size="12">QUIZ</text>
	<text x="399" y="151.8" fill="#000000" font-family="Verdana" font-size="12">num_quiz</text>
	<line x1="399" y1="154" x2="459" y2="154" stroke="#000000" stroke-width="1"/>
	<text x="399" y="168.8" fill="#000000" font-family="Verdana" font-size="12">titre</text>
	<text x="399" y="185.8" fill="#000000" font-family="Verdana" font-size="12">description</text>
	<text x="399" y="202.8" fill="#000000" font-family="Verdana" font-size="12">temps</text>
</g>

<!-- Entity UTILISATEUR -->
<g>
	<g>
		<rect x="504" y="210" width="106" height="25" fill="#dfc27d" stroke="none" stroke-width="0" opacity="1"/>
		<rect x="504" y="235" width="106" height="127" fill="#f6e8c3" stroke="none" stroke-width="0" opacity="1"/>
		<rect x="504" y="210" width="106" height="152" fill="none" stroke="#bf812d" stroke-width="2" opacity="1"/>
		<line x1="504" y1="235" x2="610" y2="235" stroke="#bf812d" stroke-width="1"/>
	</g>
	<text x="516" y="227.75" fill="#000000" font-family="Verdana" font-size="12">UTILISATEUR</text>
	<text x="509" y="252.8" fill="#000000" font-family="Verdana" font-size="12">num_utilisateur</text>
	<line x1="509" y1="255" x2="605" y2="255" stroke="#000000" stroke-width="1"/>
	<text x="509" y="269.8" fill="#000000" font-family="Verdana" font-size="12">nom</text>
	<text x="509" y="286.8" fill="#000000" font-family="Verdana" font-size="12">prenom</text>
	<text x="509" y="303.8" fill="#000000" font-family="Verdana" font-size="12">spécialisation</text>
	<text x="509" y="320.8" fill="#000000" font-family="Verdana" font-size="12">email</text>
	<text x="509" y="337.8" fill="#000000" font-family="Verdana" font-size="12">mot de passe</text>
	<text x="509" y="354.8" fill="#000000" font-family="Verdana" font-size="12">role</text>
</g>

<!-- Entity REPONSE -->
<g>
	<g>
		<rect x="20" y="379" width="94" height="25" fill="#dfc27d" stroke="none" stroke-width="0" opacity="1"/>
		<rect x="20" y="404" width="94" height="59" fill="#f6e8c3" stroke="none" stroke-width="0" opacity="1"/>
		<rect x="20" y="379" width="94" height="84" fill="none" stroke="#bf812d" stroke-width="2" opacity="1"/>
		<line x1="20" y1="404" x2="114" y2="404" stroke="#bf812d" stroke-width="1"/>
	</g>
	<text x="38" y="396.75" fill="#000000" font-family="Verdana" font-size="12">REPONSE</text>
	<text x="25" y="421.8" fill="#000000" font-family="Verdana" font-size="12">num_reponse</text>
	<line x1="25" y1="424" x2="109" y2="424" stroke="#000000" stroke-width="1"/>
	<text x="25" y="438.8" fill="#000000" font-family="Verdana" font-size="12">description</text>
	<text x="25" y="455.8" fill="#000000" font-family="Verdana" font-size="12">est_correct</text>
</g>

<!-- Entity DIFFICULTE -->
<g>
	<g>
		<rect x="201" y="387" width="98" height="25" fill="#dfc27d" stroke="none" stroke-width="0" opacity="1"/>
		<rect x="201" y="412" width="98" height="43" fill="#f6e8c3" stroke="none" stroke-width="0" opacity="1"/>
		<rect x="201" y="387" width="98" height="68" fill="none" stroke="#bf812d" stroke-width="2" opacity="1"/>
		<line x1="201" y1="412" x2="299" y2="412" stroke="#bf812d" stroke-width="1"/>
	</g>
	<text x="214" y="404.75" fill="#000000" font-family="Verdana" font-size="12">DIFFICULTE</text>
	<text x="206" y="429.8" fill="#000000" font-family="Verdana" font-size="12">num_difficulte</text>
	<line x1="206" y1="432" x2="293" y2="432" stroke="#000000" stroke-width="1"/>
	<text x="206" y="446.8" fill="#000000" font-family="Verdana" font-size="12">nom</text>
</g>

<!-- Entity RESULTAT -->
<g>
	<g>
		<rect x="387" y="387" width="92" height="25" fill="#dfc27d" stroke="none" stroke-width="0" opacity="1"/>
		<rect x="387" y="412" width="92" height="43" fill="#f6e8c3" stroke="none" stroke-width="0" opacity="1"/>
		<rect x="387" y="387" width="92" height="68" fill="none" stroke="#bf812d" stroke-width="2" opacity="1"/>
		<line x1="387" y1="412" x2="479" y2="412" stroke="#bf812d" stroke-width="1"/>
	</g>
	<text x="401" y="404.75" fill="#000000" font-family="Verdana" font-size="12">RESULTAT</text>
	<text x="392" y="429.8" fill="#000000" font-family="Verdana" font-size="12">num_resultat</text>
	<line x1="392" y1="432" x2="474" y2="432" stroke="#000000" stroke-width="1"/>
	<text x="392" y="446.8" fill="#000000" font-family="Verdana" font-size="12">date creation</text>
</g>

<!-- Entity RESULTAT_REPONSE_UTILISATEUR -->
<g>
	<g>
		<rect x="136" y="488" width="228" height="25" fill="#dfc27d" stroke="none" stroke-width="0" opacity="1"/>
		<rect x="136" y="513" width="228" height="25" fill="#f6e8c3" stroke="none" stroke-width="0" opacity="1"/>
		<rect x="136" y="488" width="228" height="50" fill="none" stroke="#bf812d" stroke-width="2" opacity="1"/>
		<line x1="136" y1="513" x2="364" y2="513" stroke="#bf812d" stroke-width="1"/>
	</g>
	<text x="141" y="505.75" fill="#000000" font-family="Verdana" font-size="12">RESULTAT_REPONSE_UTILISATEUR</text>
	<text x="141" y="530.8" fill="#000000" font-family="Verdana" font-size="12">num_reponse_utilisateur</text>
	<line x1="141" y1="533" x2="292" y2="533" stroke="#000000" stroke-width="1"/>
</g>
</svg>